<svg xmlns="http://www.w3.org/2000/svg" width="200" height="200" viewBox="0 0 200 200">
  <g id="Icon_-_Community" data-name="Icon - Community" transform="translate(-1 -1)">
    <path id="Path_21" data-name="Path 21" d="M39.71,33.258V17.123a16.111,16.111,0,0,0,6.452-12.9A3.225,3.225,0,0,0,42.935,1H17.129A16.147,16.147,0,0,0,1,17.129V33.258a19.355,19.355,0,1,0,38.71,0ZM7.452,17.129a9.689,9.689,0,0,1,9.677-9.677H39.158A9.7,9.7,0,0,1,30.032,13.9H23.581a12.916,12.916,0,0,0-12.9,12.9A6.449,6.449,0,0,1,7.452,32.39ZM33.258,33.258A12.9,12.9,0,0,1,8.748,38.89a12.919,12.919,0,0,0,8.381-12.084,6.458,6.458,0,0,1,6.452-6.452h6.452a15.882,15.882,0,0,0,3.226-.326Z" transform="translate(0 0)" fill="#69f"/>
    <path id="Path_22" data-name="Path 22" d="M52.613,13H46.161a3.225,3.225,0,0,0-3.226,3.226V38.806H39.384a16.157,16.157,0,0,0-15.8-12.9h-12.9A9.689,9.689,0,0,0,1,35.581V171.065a3.225,3.225,0,0,0,3.226,3.226h38.71a3.225,3.225,0,0,0,3.226-3.226v-6.452a9.664,9.664,0,0,0-6.452-9.084V58.161h12.9a9.689,9.689,0,0,0,9.677-9.677V22.677A9.689,9.689,0,0,0,52.613,13ZM20.355,51.71a3.226,3.226,0,0,1,0-6.452h6.452V51.71Zm6.452,103.226V93.645H20.355v61.29H7.452V87.194H33.258v67.742Zm0,12.9H7.452v-6.452H23.581a3.229,3.229,0,0,1,3.226,3.226Zm12.9,0H33.258v-3.226a9.568,9.568,0,0,0-.594-3.226h3.819a3.229,3.229,0,0,1,3.226,3.226Zm-6.452-87.1H7.452V35.581a3.229,3.229,0,0,1,3.226-3.226h12.9a9.664,9.664,0,0,1,9.084,6.452H20.355a9.677,9.677,0,0,0,0,19.355h12.9ZM55.839,48.484a3.229,3.229,0,0,1-3.226,3.226H33.258V45.258h12.9a3.225,3.225,0,0,0,3.226-3.226V19.452h3.226a3.229,3.229,0,0,1,3.226,3.226Z" transform="translate(0 26.71)" fill="#69f"/>
    <path id="Path_23" data-name="Path 23" d="M94.161,33.258V17.129A16.147,16.147,0,0,0,78.032,1H52.226A3.225,3.225,0,0,0,49,4.226a16.111,16.111,0,0,0,6.452,12.9V33.258a19.355,19.355,0,1,0,38.71,0Zm-19.355,12.9a12.916,12.916,0,0,1-12.9-12.9V20.029a15.882,15.882,0,0,0,3.226.326h6.452a6.458,6.458,0,0,1,6.452,6.452A12.919,12.919,0,0,0,86.413,38.89,12.916,12.916,0,0,1,74.806,46.161ZM87.71,32.39a6.449,6.449,0,0,1-3.226-5.584,12.916,12.916,0,0,0-12.9-12.9H65.129A9.7,9.7,0,0,1,56,7.452H78.032a9.689,9.689,0,0,1,9.677,9.677Z" transform="translate(106.839)" fill="#69f"/>
    <path id="Path_24" data-name="Path 24" d="M66.906,38.806H63.355V16.226A3.225,3.225,0,0,0,60.129,13H53.677A9.689,9.689,0,0,0,44,22.677V48.484a9.689,9.689,0,0,0,9.677,9.677h12.9v97.368a9.664,9.664,0,0,0-6.452,9.084v6.452a3.225,3.225,0,0,0,3.226,3.226h38.71a3.225,3.225,0,0,0,3.226-3.226V35.581A9.689,9.689,0,0,0,95.613,25.9H82.71a16.159,16.159,0,0,0-15.8,12.9Zm19.029,6.452a3.226,3.226,0,0,1,0,6.452H79.484V45.258ZM50.452,48.484V22.677a3.229,3.229,0,0,1,3.226-3.226H56.9V42.032a3.225,3.225,0,0,0,3.226,3.226h12.9V51.71H53.677A3.229,3.229,0,0,1,50.452,48.484ZM66.581,164.613a3.229,3.229,0,0,1,3.226-3.226h3.819a9.569,9.569,0,0,0-.594,3.226v3.226H66.581Zm32.258,3.226H79.484v-3.226a3.229,3.229,0,0,1,3.226-3.226H98.839Zm-12.9-12.9V93.645H79.484v61.29H73.032V87.194H98.839v67.742ZM95.613,32.355a3.229,3.229,0,0,1,3.226,3.226V80.742H73.032V58.161h12.9a9.677,9.677,0,0,0,0-19.355H73.626a9.664,9.664,0,0,1,9.084-6.452Z" transform="translate(95.71 26.71)" fill="#69f"/>
    <path id="Path_25" data-name="Path 25" d="M54.258,1a32.258,32.258,0,1,0,0,64.516H83.29a3.225,3.225,0,0,0,3.226-3.226V33.258A32.3,32.3,0,0,0,54.258,1ZM80.065,59.065H54.258A25.806,25.806,0,1,1,80.065,33.258Z" transform="translate(46.742)" fill="#69f"/>
    <path id="Path_26" data-name="Path 26" d="M27,10h6.452v6.452H27Z" transform="translate(57.871 20.032)" fill="#69f"/>
    <path id="Path_27" data-name="Path 27" d="M31,10h6.452v6.452H31Z" transform="translate(66.774 20.032)" fill="#69f"/>
    <path id="Path_28" data-name="Path 28" d="M35,10h6.452v6.452H35Z" transform="translate(75.677 20.032)" fill="#69f"/>
    <path id="Path_29" data-name="Path 29" d="M54.258,23A32.3,32.3,0,0,0,22,55.258V84.29a3.225,3.225,0,0,0,3.226,3.226H54.258a32.258,32.258,0,0,0,0-64.516Zm0,58.065H28.452V55.258A25.806,25.806,0,1,1,54.258,81.065Z" transform="translate(46.742 48.968)" fill="#69f"/>
    <path id="Path_30" data-name="Path 30" d="M35,32h6.452v6.452H35Z" transform="translate(75.677 69)" fill="#69f"/>
    <path id="Path_31" data-name="Path 31" d="M31,32h6.452v6.452H31Z" transform="translate(66.774 69)" fill="#69f"/>
    <path id="Path_32" data-name="Path 32" d="M27,32h6.452v6.452H27Z" transform="translate(57.871 69)" fill="#69f"/>
  </g>
</svg>
