<svg xmlns="http://www.w3.org/2000/svg" width="200" height="191.983" viewBox="0 0 200 191.983">
  <g id="Icon_-_Fast" data-name="Icon - Fast" transform="translate(0 -10.262)">
    <g id="XMLID_386_" transform="translate(0 10.262)">
      <path id="XMLID_389_" d="M199.614,115.492A78.843,78.843,0,0,0,138.3,46.357V36.432a13.281,13.281,0,0,0-3.206-26.17H106.974a13.281,13.281,0,0,0-3.206,26.17v9.953A78.436,78.436,0,0,0,65.3,67.544a79.284,79.284,0,0,0-6.633,7.527c-.1-.007-.2-.015-.3-.015H30.534a3.906,3.906,0,1,0,0,7.813H53.352a78.309,78.309,0,0,0-6.931,15.014H3.906a3.906,3.906,0,1,0,0,7.813H44.213a79.424,79.424,0,0,0-1.939,15.015H25a3.906,3.906,0,0,0,0,7.813H42.4a79.308,79.308,0,0,0,2.439,15.015H19.532a3.906,3.906,0,1,0,0,7.813h27.8A78.9,78.9,0,0,0,113.3,201.864q3.871.382,7.742.381A79.1,79.1,0,0,0,164.1,189.518a3.906,3.906,0,0,0-4.263-6.547,71.094,71.094,0,1,1,20.939-20.966,3.906,3.906,0,1,0,6.552,4.255A79.159,79.159,0,0,0,199.614,115.492ZM101.505,23.544a5.475,5.475,0,0,1,5.469-5.469H135.1a5.469,5.469,0,1,1,0,10.938H106.974A5.475,5.475,0,0,1,101.505,23.544Zm10.076,21.5V36.825h18.912v8.2A79.593,79.593,0,0,0,111.581,45.041Z" transform="translate(0 -10.262)" fill="#69f"/>
      <path id="XMLID_391_" d="M439.676,425.5a3.908,3.908,0,1,0,2.762,1.145A3.927,3.927,0,0,0,439.676,425.5Z" transform="translate(-265.545 -263.295)" fill="#69f"/>
      <path id="XMLID_394_" d="M215.47,144.609a60.6,60.6,0,1,0,60.6,60.6A60.667,60.667,0,0,0,215.47,144.609Zm0,113.384a52.786,52.786,0,1,1,52.786-52.786A52.845,52.845,0,0,1,215.47,257.993Z" transform="translate(-94.374 -92.129)" fill="#69f"/>
      <path id="XMLID_397_" d="M302.436,220.555,283.088,239.9a12.108,12.108,0,0,0-10.724,0l-8.659-8.659a3.906,3.906,0,0,0-5.525,5.524l8.659,8.659a12.138,12.138,0,1,0,21.773,0l18.78-18.78h0l.568-.568a3.906,3.906,0,0,0-5.524-5.524Zm-24.71,34.56a4.326,4.326,0,1,1,4.326-4.326A4.331,4.331,0,0,1,277.726,255.115Z" transform="translate(-156.63 -137.711)" fill="#69f"/>
      <path id="XMLID_398_" d="M405.181,289.86h-3.619a3.906,3.906,0,0,0,0,7.813h3.619a3.906,3.906,0,0,0,0-7.813Z" transform="translate(-242.319 -180.64)" fill="#69f"/>
      <path id="XMLID_399_" d="M200.607,289.616h-3.619a3.906,3.906,0,1,0,0,7.813h3.619a3.906,3.906,0,0,0,0-7.813Z" transform="translate(-117.658 -180.492)" fill="#69f"/>
      <path id="XMLID_400_" d="M304.029,194.25a3.907,3.907,0,0,0,3.906-3.906v-3.619a3.906,3.906,0,0,0-7.813,0v3.619A3.906,3.906,0,0,0,304.029,194.25Z" transform="translate(-182.886 -115.413)" fill="#69f"/>
      <path id="XMLID_424_" d="M303.785,387.393a3.906,3.906,0,0,0-3.906,3.906v3.619a3.906,3.906,0,0,0,7.813,0V391.3A3.906,3.906,0,0,0,303.785,387.393Z" transform="translate(-182.737 -240.074)" fill="#69f"/>
      <path id="XMLID_425_" d="M3.906,351.44a3.906,3.906,0,1,0,2.761,6.668,3.906,3.906,0,0,0-2.761-6.668Z" transform="translate(0 -218.165)" fill="#69f"/>
    </g>
  </g>
</svg>
