<svg xmlns="http://www.w3.org/2000/svg" width="200" height="200" viewBox="0 0 200 200">
  <g id="Icon_-_Free" data-name="Icon - Free" transform="translate(-1 -1)">
    <path id="Path_11" data-name="Path 11" d="M54.594,114.38A42.83,42.83,0,0,0,77.977,82.012l1.529,1.529L89.184,60.96l5.365,5.361L97.774,63.1V88.647c-4.413,3.084-6.452,11.965-6.452,15.048a9.677,9.677,0,1,0,19.355,0c0-3.084-2.039-11.961-6.452-15.048v-32l4.561-4.561-4.561-4.561V26.667a10.068,10.068,0,0,0-17.187-7.119l-5.394,5.394L62.29,5.586,48.052,19.825l5.365,5.365-17.59,7.539H18.742a17.73,17.73,0,0,0-6.277,34.316,12.826,12.826,0,0,0-1.1,1.755c-3.258,6.352-7.142,15.326-7.142,22v2.326L13.9,96.347v6.013a14.108,14.108,0,0,0,12.9,14.113v11.481A68.056,68.056,0,0,0,1,181.115v9.677H78.419v-30.5a43.221,43.221,0,0,0-25.806-39.41v-5.51ZM101,106.921a3.229,3.229,0,0,1-3.226-3.226c0-2.665,1.842-7.858,3.226-9.4,1.384,1.545,3.226,6.739,3.226,9.4A3.229,3.229,0,0,1,101,106.921ZM91.6,24.109a3.618,3.618,0,0,1,6.174,2.558v14.4L86.206,29.5ZM57.174,19.825l5.116-5.116L99.665,52.083,94.548,57.2l-2.626-2.626L59.8,22.454ZM58.326,30.1,84.268,56.047,77.329,72.241l-35.2-35.2ZM20.355,102.36V91.7l-9.5-3.165c.616-4.187,2.781-10.026,6.252-16.79a6.436,6.436,0,0,1,5.752-3.529h.719V61.76H18.742a11.29,11.29,0,1,1,0-22.581h16.4l36.81,36.81A36.381,36.381,0,0,1,52.61,108.073V98.58l3.616-3.616a9.6,9.6,0,0,0,2.839-6.842v-.555a9.7,9.7,0,0,0-6.452-9.126V74.663a12.916,12.916,0,0,0-12.9-12.9v6.452a6.458,6.458,0,0,1,6.452,6.452v9.677h3.226a3.229,3.229,0,0,1,3.226,3.226v.555a3.25,3.25,0,0,1-.945,2.281l-5.506,5.506v24.816l-12.9,4.3V116.6H39.71v-6.452l-11.565,0a7.792,7.792,0,0,1-7.79-7.79Zm51.613,57.929v24.052H52.613V154.2a9.618,9.618,0,0,1,2.832-6.845l2.674-2.671-4.561-4.561L50.884,142.8A16.026,16.026,0,0,0,46.161,154.2v30.139H7.452v-3.226a61.6,61.6,0,0,1,24.1-48.723L49.3,126.48a36.726,36.726,0,0,1,22.671,33.81Z" transform="translate(0 10.208)" fill="#69f"/>
    <path id="Path_12" data-name="Path 12" d="M20.251,21H13.8c0,8.342-2.429,10.771-5.506,13.848l4.561,4.561c3.468-3.465,7.4-7.4,7.4-18.41Z" transform="translate(16.233 44.516)" fill="#69f"/>
    <path id="Path_13" data-name="Path 13" d="M44.677,57.9A3.229,3.229,0,0,1,47.9,61.129h6.452A9.664,9.664,0,0,0,47.9,52.045V45H41.452v7.045a9.654,9.654,0,0,0,3.226,18.761,3.226,3.226,0,1,1-3.226,3.226H35a9.664,9.664,0,0,0,6.452,9.084v7.045H47.9V83.116a9.654,9.654,0,0,0-3.226-18.761,3.226,3.226,0,1,1,0-6.452Z" transform="translate(75.677 97.935)" fill="#69f"/>
    <path id="Path_14" data-name="Path 14" d="M58.677,45.9A3.229,3.229,0,0,1,61.9,49.129h6.452A9.664,9.664,0,0,0,61.9,40.045V33H55.452v7.045a9.654,9.654,0,0,0,3.226,18.761,3.226,3.226,0,1,1-3.226,3.226H49a9.664,9.664,0,0,0,6.452,9.084v7.045H61.9V71.116a9.654,9.654,0,0,0-3.226-18.761,3.226,3.226,0,1,1,0-6.452Z" transform="translate(106.839 71.226)" fill="#69f"/>
    <path id="Path_15" data-name="Path 15" d="M107.645,29A35.526,35.526,0,0,0,72.161,64.484a35,35,0,0,0,.335,4.687A35.854,35.854,0,1,0,97.613,98.448a34.919,34.919,0,0,0,10.032,1.519,35.484,35.484,0,0,0,0-70.968ZM62.484,132.226a29.032,29.032,0,1,1,29.032-29.032A29.066,29.066,0,0,1,62.484,132.226Zm45.161-38.71a28.6,28.6,0,0,1-11.926-2.639A35.656,35.656,0,0,0,79.739,72.213a28.988,28.988,0,1,1,27.906,21.3Z" transform="translate(57.871 62.323)" fill="#69f"/>
    <path id="Path_16" data-name="Path 16" d="M58.677,37.258a3.229,3.229,0,0,1-3.226-3.226H49a9.664,9.664,0,0,0,6.452,9.084v7.045H61.9V43.116a9.654,9.654,0,0,0-3.226-18.761A3.226,3.226,0,1,1,61.9,21.129h6.452A9.664,9.664,0,0,0,61.9,12.045V5H55.452v7.045a9.654,9.654,0,0,0,3.226,18.761,3.226,3.226,0,0,1,0,6.452Z" transform="translate(106.839 8.903)" fill="#69f"/>
    <path id="Path_17" data-name="Path 17" d="M76.484,71.968A35.484,35.484,0,1,0,41,36.484,35.526,35.526,0,0,0,76.484,71.968Zm0-64.516A29.032,29.032,0,1,1,47.452,36.484,29.066,29.066,0,0,1,76.484,7.452Z" transform="translate(89.032 0)" fill="#69f"/>
  </g>
</svg>
