<svg xmlns="http://www.w3.org/2000/svg" width="200" height="234.865" viewBox="0 0 200 234.865">
  <g id="surface1" transform="translate(0 0.001)">
    <path id="Path_18" data-name="Path 18" d="M199.767,63.724l-.007-.183c-.1-2.256-.17-4.643-.211-7.3a24.892,24.892,0,0,0-23.438-24.385c-27-1.507-47.893-10.312-65.742-27.71L110.217,4A15.031,15.031,0,0,0,89.789,4l-.152.145C71.788,21.545,50.9,30.35,23.895,31.859A24.891,24.891,0,0,0,.457,56.244c-.039,2.638-.109,5.024-.211,7.3l-.011.424C-.29,91.5-.942,125.771,10.522,156.876a118.273,118.273,0,0,0,28.374,44.2c14.263,13.919,32.945,24.97,55.527,32.843a17.2,17.2,0,0,0,2.276.62,16.807,16.807,0,0,0,6.608,0,17.252,17.252,0,0,0,2.285-.623c22.554-7.888,41.216-18.944,55.467-32.861a118.438,118.438,0,0,0,28.375-44.207C200.941,125.646,200.29,91.312,199.767,63.724ZM176.5,152.076c-12.091,32.784-36.775,55.3-75.459,68.828a3.458,3.458,0,0,1-.437.118,3.092,3.092,0,0,1-1.211,0,3.429,3.429,0,0,1-.434-.117C60.236,207.4,35.537,184.9,23.454,152.112c-10.567-28.672-9.968-60.13-9.44-87.882l0-.154c.108-2.385.179-4.883.219-7.628A11.063,11.063,0,0,1,24.663,45.619c15.281-.853,28.706-3.806,41.041-9.027A107.375,107.375,0,0,0,99.15,14.121a1.271,1.271,0,0,1,1.706,0A107.415,107.415,0,0,0,134.3,36.591c12.335,5.222,25.76,8.175,41.043,9.027a11.061,11.061,0,0,1,10.425,10.83c.041,2.759.113,5.257.22,7.626C186.516,91.86,187.1,123.343,176.5,152.076Zm0,0" fill="#69f"/>
    <path id="Path_19" data-name="Path 19" d="M148.93,128.41a58.532,58.532,0,1,0,58.532,58.532A58.6,58.6,0,0,0,148.93,128.41Zm0,103.282a44.75,44.75,0,1,1,44.749-44.75A44.8,44.8,0,0,1,148.93,231.692Zm0,0" transform="translate(-48.931 -69.506)" fill="#69f"/>
    <path id="Path_20" data-name="Path 20" d="M200,214.011,172.815,241.2l-7.379-7.379a6.891,6.891,0,0,0-9.746,9.744l12.253,12.253a6.891,6.891,0,0,0,9.744,0l32.06-32.06A6.891,6.891,0,1,0,200,214.011Zm0,0" transform="translate(-83.18 -114.747)" fill="#69f"/>
  </g>
</svg>
