<svg xmlns="http://www.w3.org/2000/svg" xmlns:xlink="http://www.w3.org/1999/xlink" width="795.389" height="574.033" viewBox="0 0 795.389 574.033">
  <defs>
    <linearGradient id="linear-gradient" x1="-11.741" y1="5.084" x2="-11.741" y2="4.933" gradientUnits="objectBoundingBox">
      <stop offset="0" stop-color="gray" stop-opacity="0.251"/>
      <stop offset="0.535" stop-color="gray" stop-opacity="0.122"/>
      <stop offset="1" stop-color="gray" stop-opacity="0.102"/>
    </linearGradient>
  </defs>
  <g id="Illustration_-_Graduation" data-name="Illustration - Graduation" transform="translate(-0.005)">
    <ellipse id="Ellipse_1" data-name="Ellipse 1" cx="35.095" cy="5.264" rx="35.095" ry="5.264" transform="translate(9.444 316.186) rotate(-63.611)" fill="#e0e0e0"/>
    <ellipse id="Ellipse_2" data-name="Ellipse 2" cx="35.095" cy="3.577" rx="35.095" ry="3.577" transform="translate(449.477 534.723) rotate(-63.611)" fill="#e0e0e0"/>
    <rect id="Rectangle_1" data-name="Rectangle 1" width="21.057" height="70.189" transform="translate(220.403 405.286) rotate(39.547)" fill="#f55f44"/>
    <rect id="Rectangle_2" data-name="Rectangle 2" width="23.692" height="70.189" transform="translate(222.37 482.557) rotate(-166.769)" opacity="0.05"/>
    <rect id="Rectangle_3" data-name="Rectangle 3" width="21.057" height="70.189" transform="translate(222.37 482.557) rotate(-166.769)" fill="#f55f44"/>
    <rect id="Rectangle_4" data-name="Rectangle 4" width="73.699" height="489.572" transform="translate(13.379 320.097) rotate(-63.611)" fill="url(#linear-gradient)"/>
    <path id="Path_1" data-name="Path 1" d="M655.016,699.1c-8.584-4.117-444.844-220.718-438.556-217.6,24.214-36.957,31.2-62.875,31.2-62.875l438.556,217.6S670.811,663.259,655.016,699.1Z" transform="translate(-202.303 -162.981)" fill="#f5f5f5"/>
    <rect id="Rectangle_5" data-name="Rectangle 5" width="40.359" height="70.189" transform="translate(237.123 350.805) rotate(26.389)" opacity="0.05"/>
    <rect id="Rectangle_6" data-name="Rectangle 6" width="36.849" height="70.189" transform="translate(238.696 351.585) rotate(26.389)" fill="#f55f44"/>
    <rect id="Rectangle_7" data-name="Rectangle 7" width="24.566" height="70.189" transform="translate(243.411 353.924) rotate(26.389)" opacity="0.05"/>
    <rect id="Rectangle_8" data-name="Rectangle 8" width="21.057" height="70.189" transform="translate(244.983 354.704) rotate(26.389)" fill="#f55f44"/>
    <circle id="Ellipse_3" data-name="Ellipse 3" cx="2.926" cy="2.926" r="2.926" transform="translate(258.38 560.999)" fill="#dbdbdb"/>
    <g id="Group_1" data-name="Group 1" opacity="0.5">
      <rect id="Rectangle_9" data-name="Rectangle 9" width="3" height="17" transform="translate(29.394 482)" fill="#47e6b1"/>
      <rect id="Rectangle_10" data-name="Rectangle 10" width="3" height="17" transform="translate(39.394 489) rotate(90)" fill="#47e6b1"/>
    </g>
    <g id="Group_2" data-name="Group 2" opacity="0.5">
      <rect id="Rectangle_11" data-name="Rectangle 11" width="3" height="17" transform="translate(785.394 270)" fill="#47e6b1"/>
      <rect id="Rectangle_12" data-name="Rectangle 12" width="3" height="17" transform="translate(795.394 277) rotate(90)" fill="#47e6b1"/>
    </g>
    <g id="Group_3" data-name="Group 3" opacity="0.5">
      <rect id="Rectangle_13" data-name="Rectangle 13" width="3" height="17" transform="translate(47.394 59)" fill="#47e6b1"/>
      <rect id="Rectangle_14" data-name="Rectangle 14" width="3" height="17" transform="translate(57.394 66) rotate(90)" fill="#47e6b1"/>
    </g>
    <g id="Group_4" data-name="Group 4" opacity="0.5">
      <rect id="Rectangle_15" data-name="Rectangle 15" width="3" height="17" transform="translate(695.394 33)" fill="#47e6b1"/>
      <rect id="Rectangle_16" data-name="Rectangle 16" width="3" height="17" transform="translate(705.394 40) rotate(90)" fill="#47e6b1"/>
    </g>
    <path id="Path_2" data-name="Path 2" d="M214.593,416.437A3.675,3.675,0,0,1,212.546,412a1.767,1.767,0,0,0,.08-.408h0a1.843,1.843,0,0,0-3.31-1.221h0a1.766,1.766,0,0,0-.2.362,3.675,3.675,0,0,1-4.441,2.047,1.765,1.765,0,0,0-.408-.08h0a1.843,1.843,0,0,0-1.221,3.31h0a1.766,1.766,0,0,0,.362.2,3.675,3.675,0,0,1,2.047,4.441,1.765,1.765,0,0,0-.08.408h0a1.843,1.843,0,0,0,3.31,1.221h0a1.766,1.766,0,0,0,.2-.362,3.675,3.675,0,0,1,4.441-2.047,1.767,1.767,0,0,0,.408.08h0a1.843,1.843,0,0,0,1.221-3.31h0a1.765,1.765,0,0,0-.362-.2Z" transform="translate(-202.303 -162.981)" fill="#4d8af0" opacity="0.5"/>
    <path id="Path_3" data-name="Path 3" d="M386.593,219.437A3.675,3.675,0,0,1,384.546,215a1.769,1.769,0,0,0,.08-.408h0a1.843,1.843,0,0,0-3.31-1.221h0a1.767,1.767,0,0,0-.2.362,3.675,3.675,0,0,1-4.441,2.047,1.765,1.765,0,0,0-.408-.08h0a1.843,1.843,0,0,0-1.221,3.31h0a1.767,1.767,0,0,0,.362.2,3.675,3.675,0,0,1,2.047,4.441,1.768,1.768,0,0,0-.08.408h0a1.843,1.843,0,0,0,3.31,1.221h0a1.767,1.767,0,0,0,.2-.362,3.675,3.675,0,0,1,4.441-2.047,1.768,1.768,0,0,0,.408.08h0a1.843,1.843,0,0,0,1.221-3.31h0a1.767,1.767,0,0,0-.362-.2Z" transform="translate(-202.303 -162.981)" fill="#4d8af0" opacity="0.5"/>
    <path id="Path_4" data-name="Path 4" d="M596.593,730.437A3.675,3.675,0,0,1,594.546,726a1.761,1.761,0,0,0,.08-.408h0a1.843,1.843,0,0,0-3.31-1.221h0a1.766,1.766,0,0,0-.2.362,3.675,3.675,0,0,1-4.441,2.048,1.764,1.764,0,0,0-.408-.08h0a1.843,1.843,0,0,0-1.221,3.31h0a1.762,1.762,0,0,0,.362.2,3.675,3.675,0,0,1,2.047,4.441,1.763,1.763,0,0,0-.08.407h0a1.843,1.843,0,0,0,3.31,1.221h0a1.764,1.764,0,0,0,.2-.362,3.675,3.675,0,0,1,4.441-2.048,1.764,1.764,0,0,0,.408.08h0a1.843,1.843,0,0,0,1.221-3.31h0A1.767,1.767,0,0,0,596.593,730.437Z" transform="translate(-202.303 -162.981)" fill="#4d8af0" opacity="0.5"/>
    <circle id="Ellipse_4" data-name="Ellipse 4" cx="6" cy="6" r="6" transform="translate(753.394 438)" fill="#f55f44" opacity="0.5"/>
    <circle id="Ellipse_5" data-name="Ellipse 5" cx="6" cy="6" r="6" transform="translate(621.394 476)" fill="#4d8af0" opacity="0.5"/>
    <circle id="Ellipse_6" data-name="Ellipse 6" cx="6" cy="6" r="6" transform="translate(97.394 535)" fill="#47e6b1" opacity="0.5"/>
    <circle id="Ellipse_7" data-name="Ellipse 7" cx="6" cy="6" r="6" transform="translate(405.394)" fill="#f55f44" opacity="0.5"/>
    <path id="Path_5" data-name="Path 5" d="M407.2,520.481l-24,36s8,37,185,36,191-36,191-36l-33-48-101-69Z" transform="translate(-202.303 -162.981)" fill="#ffb726"/>
    <path id="Path_6" data-name="Path 6" d="M407.2,520.481l-24,36s8,37,185,36,191-36,191-36l-33-48-101-69Z" transform="translate(-202.303 -162.981)" opacity="0.15"/>
    <path id="Path_7" data-name="Path 7" d="M715.394,224l-315,139-384-139,352-160,172.79,79.67,6.19,2.86Z" fill="#ffb726"/>
    <path id="Path_8" data-name="Path 8" d="M715.394,224l-315,139-384-139,352-160,172.79,79.67,6.19,2.86Z" opacity="0.15"/>
    <path id="Path_9" data-name="Path 9" d="M553.894,257.32l-6,.36-6.71-114.01,6.19,2.86Z" fill="#f5f5f5"/>
    <path id="Path_10" data-name="Path 10" d="M411.2,386.481l-28,170s201-65,376,0l-26-180S498.2,347.481,411.2,386.481Z" transform="translate(-202.303 -162.981)" fill="#ffb726"/>
    <ellipse id="Ellipse_8" data-name="Ellipse 8" cx="29" cy="20" rx="29" ry="20" transform="translate(524.394 252)" fill="#f5f5f5"/>
  </g>
</svg>
