<svg xmlns="http://www.w3.org/2000/svg" xmlns:xlink="http://www.w3.org/1999/xlink" width="1920" height="1700" viewBox="0 0 1920 1700">
  <defs>
    <filter id="Back" x="70" y="1558" width="121" height="119" filterUnits="userSpaceOnUse">
      <feOffset dx="5" dy="-5" input="SourceAlpha"/>
      <feGaussianBlur stdDeviation="3" result="blur"/>
      <feFlood flood-opacity="0.161"/>
      <feComposite operator="in" in2="blur"/>
      <feComposite in="SourceGraphic"/>
    </filter>
    <filter id="Front" x="80" y="1585" width="86" height="85" filterUnits="userSpaceOnUse">
      <feOffset dx="-2" dy="5" input="SourceAlpha"/>
      <feGaussianBlur stdDeviation="3" result="blur-2"/>
      <feFlood flood-opacity="0.161"/>
      <feComposite operator="in" in2="blur-2"/>
      <feComposite in="SourceGraphic"/>
    </filter>
    <filter id="Back-2" x="409" y="1504" width="175" height="173" filterUnits="userSpaceOnUse">
      <feOffset dx="-5" dy="-5" input="SourceAlpha"/>
      <feGaussianBlur stdDeviation="3" result="blur-3"/>
      <feFlood flood-opacity="0.161"/>
      <feComposite operator="in" in2="blur-3"/>
      <feComposite in="SourceGraphic"/>
    </filter>
    <filter id="Front-2" x="451" y="1547" width="123" height="122" filterUnits="userSpaceOnUse">
      <feOffset dx="2" dy="5" input="SourceAlpha"/>
      <feGaussianBlur stdDeviation="3" result="blur-4"/>
      <feFlood flood-opacity="0.161"/>
      <feComposite operator="in" in2="blur-4"/>
      <feComposite in="SourceGraphic"/>
    </filter>
    <linearGradient id="linear-gradient" x1="-11.741" y1="5.084" x2="-11.741" y2="4.933" gradientUnits="objectBoundingBox">
      <stop offset="0" stop-color="gray" stop-opacity="0.251"/>
      <stop offset="0.535" stop-color="gray" stop-opacity="0.122"/>
      <stop offset="1" stop-color="gray" stop-opacity="0.102"/>
    </linearGradient>
    <filter id="طهران" x="1530" y="39" width="206" height="136" filterUnits="userSpaceOnUse">
      <feOffset dx="6" dy="6" input="SourceAlpha"/>
      <feGaussianBlur stdDeviation="3" result="blur-5"/>
      <feFlood flood-opacity="0.161"/>
      <feComposite operator="in" in2="blur-5"/>
      <feComposite in="SourceGraphic"/>
    </filter>
    <clipPath id="clip-Landing_Page_-_Version_01">
      <rect width="1920" height="1700"/>
    </clipPath>
  </defs>
  <g id="Landing_Page_-_Version_01" data-name="Landing Page - Version 01" clip-path="url(#clip-Landing_Page_-_Version_01)">
    <rect width="1920" height="1700" fill="#fff"/>
    <g id="Background" transform="translate(0 40)">
      <g id="Top" transform="translate(0 302)">
        <path id="Top-2" data-name="Top" d="M-221.479-168.553C-87.268,47.763,279.315,532.316,579.474,414.316S982.8,73.658,1216.8,178.342s723.142,224.147,800.526-154.768,104.068-480.258,104.068-480.258h-269.92L-104.684-409.474S-355.689-384.868-221.479-168.553Z" fill="#69f"/>
        <g id="Rings">
          <g id="left" transform="translate(-141 -394)" fill="none" stroke="rgba(255,255,255,0.26)" stroke-width="20">
            <ellipse cx="141.5" cy="146.5" rx="141.5" ry="146.5" stroke="none"/>
            <ellipse cx="141.5" cy="146.5" rx="131.5" ry="136.5" fill="none"/>
          </g>
          <g id="center" transform="translate(840 118)" fill="none" stroke="rgba(255,255,255,0.26)" stroke-width="20">
            <ellipse cx="141.5" cy="146.5" rx="141.5" ry="146.5" stroke="none"/>
            <ellipse cx="141.5" cy="146.5" rx="131.5" ry="136.5" fill="none"/>
          </g>
          <g id="right" transform="translate(1656 167)" fill="none" stroke="rgba(255,255,255,0.26)" stroke-width="20">
            <ellipse cx="75.5" cy="78.5" rx="75.5" ry="78.5" stroke="none"/>
            <ellipse cx="75.5" cy="78.5" rx="65.5" ry="68.5" fill="none"/>
          </g>
        </g>
      </g>
      <rect id="Mask" width="1920" height="775" transform="translate(0 -40)" fill="none"/>
    </g>
    <g id="Content" transform="translate(-43 -6)">
      <g id="Footer" transform="translate(43 6)">
        <g id="Background-2" data-name="Background">
          <g id="Expands">
            <circle id="Big" cx="82.5" cy="82.5" r="82.5" transform="translate(1672 1436)" fill="#69f"/>
            <ellipse id="Small" cx="41.5" cy="42" rx="41.5" ry="42" transform="translate(1613 1476)" fill="#69f"/>
          </g>
          <rect id="Rectangle" width="1920" height="200" transform="translate(0 1500)" fill="#69f"/>
          <g id="Effects">
            <g id="Small-2" data-name="Small" transform="translate(-349 54.121)">
              <g transform="matrix(1, 0, 0, 1, 349, -54.12)" filter="url(#Back)">
                <ellipse id="Back-3" data-name="Back" cx="51.5" cy="50.5" rx="51.5" ry="50.5" transform="translate(74 1572)" fill="#69f"/>
              </g>
              <g transform="matrix(1, 0, 0, 1, 349, -54.12)" filter="url(#Front)">
                <ellipse id="Front-3" data-name="Front" cx="34" cy="33.5" rx="34" ry="33.5" transform="translate(91 1589)" fill="#69f"/>
              </g>
            </g>
            <g id="Big-2" data-name="Big">
              <g transform="matrix(1, 0, 0, 1, 0, 0)" filter="url(#Back-2)">
                <ellipse id="Back-4" data-name="Back" cx="78.5" cy="77.5" rx="78.5" ry="77.5" transform="translate(423 1518)" fill="#69f"/>
              </g>
              <g transform="matrix(1, 0, 0, 1, 0, 0)" filter="url(#Front-2)">
                <ellipse id="Front-4" data-name="Front" cx="52.5" cy="52" rx="52.5" ry="52" transform="translate(458 1551)" fill="#69f"/>
              </g>
            </g>
          </g>
        </g>
        <g id="Button" transform="translate(-400 1455)">
          <rect id="Background-3" data-name="Background" width="200" height="80" rx="30" transform="translate(600 105)" fill="#ffb726"/>
          <text id="ثبت_نام" data-name="ثبت نام" transform="translate(756 157)" fill="#fff" font-size="36" font-family="Sahel"><tspan x="-110.953" y="0">ثبت نام</tspan></text>
        </g>
        <text id="_پس_منتظر_چی_هستی_همین_حالا_ثبت_نام_کن" data-name="!پس منتظر چی هستی؟ همین حالا ثبت نام کن" transform="translate(1153 1620)" fill="#fff" font-size="60" font-family="Sahel"><tspan x="-567.144" y="0">!</tspan><tspan y="0">پس منتظر چی هستی؟ همین حالا ثبت نام کن</tspan></text>
      </g>
      <g id="Features">
        <g id="سریع_و_آسان" data-name="سریع و آسان" transform="translate(-1249 6)">
          <text id="به_سرعت_با_سایت_آشنا_می_شید_و_کار_کردن_باهاش_رو_...یاد_می_گیرید" data-name="به سرعت با سایت آشنا می‌شید
و کار کردن باهاش رو
...یاد می‌گیرید" transform="translate(1592 1293)" fill="#4d4d4d" font-size="28" font-family="Sahel"><tspan x="-174.576" y="0">به سرعت با سایت آشنا می‌شید</tspan><tspan y="0"></tspan><tspan x="-114.304" y="40">و کار کردن باهاش رو</tspan><tspan y="40"></tspan><tspan x="-86.058" y="80">...</tspan><tspan y="80">یاد می‌گیرید</tspan></text>
          <text id="سریع_و_آسان-2" data-name="سریع و آسان" transform="translate(1717 1207)" fill="#4d4d4d" font-size="48" font-family="Sahel-Bold, Sahel" font-weight="700"><tspan x="-250.125" y="0">سریع و آسان</tspan></text>
          <path id="Background-4" data-name="Background" d="M1472.875,1069.989c1.576-19.705,36.909-11.03,63.712-49.989,42.944-62.423,85.653-174.341,131.172-114.913,73.895,96.474,39.006,191.223-43.1,211.749S1468.77,1121.305,1472.875,1069.989Z" fill="#e6eeff"/>
          <g id="Icon_-_Fast" data-name="Icon - Fast" transform="translate(1472 893.738)">
            <g id="XMLID_386_" transform="translate(0 10.262)">
              <path id="XMLID_389_" d="M199.614,115.492A78.843,78.843,0,0,0,138.3,46.357V36.432a13.281,13.281,0,0,0-3.206-26.17H106.974a13.281,13.281,0,0,0-3.206,26.17v9.953A78.436,78.436,0,0,0,65.3,67.544a79.284,79.284,0,0,0-6.633,7.527c-.1-.007-.2-.015-.3-.015H30.534a3.906,3.906,0,1,0,0,7.813H53.352a78.309,78.309,0,0,0-6.931,15.014H3.906a3.906,3.906,0,1,0,0,7.813H44.213a79.424,79.424,0,0,0-1.939,15.015H25a3.906,3.906,0,0,0,0,7.813H42.4a79.308,79.308,0,0,0,2.439,15.015H19.532a3.906,3.906,0,1,0,0,7.813h27.8A78.9,78.9,0,0,0,113.3,201.864q3.871.382,7.742.381A79.1,79.1,0,0,0,164.1,189.518a3.906,3.906,0,0,0-4.263-6.547,71.094,71.094,0,1,1,20.939-20.966,3.906,3.906,0,1,0,6.552,4.255A79.159,79.159,0,0,0,199.614,115.492ZM101.505,23.544a5.475,5.475,0,0,1,5.469-5.469H135.1a5.469,5.469,0,1,1,0,10.938H106.974A5.475,5.475,0,0,1,101.505,23.544Zm10.076,21.5V36.825h18.912v8.2A79.593,79.593,0,0,0,111.581,45.041Z" transform="translate(0 -10.262)" fill="#69f"/>
              <path id="XMLID_391_" d="M439.676,425.5a3.908,3.908,0,1,0,2.762,1.145A3.927,3.927,0,0,0,439.676,425.5Z" transform="translate(-265.545 -263.295)" fill="#69f"/>
              <path id="XMLID_394_" d="M215.47,144.609a60.6,60.6,0,1,0,60.6,60.6A60.667,60.667,0,0,0,215.47,144.609Zm0,113.384a52.786,52.786,0,1,1,52.786-52.786A52.845,52.845,0,0,1,215.47,257.993Z" transform="translate(-94.374 -92.129)" fill="#69f"/>
              <path id="XMLID_397_" d="M302.436,220.555,283.088,239.9a12.108,12.108,0,0,0-10.724,0l-8.659-8.659a3.906,3.906,0,0,0-5.525,5.524l8.659,8.659a12.138,12.138,0,1,0,21.773,0l18.78-18.78h0l.568-.568a3.906,3.906,0,0,0-5.524-5.524Zm-24.71,34.56a4.326,4.326,0,1,1,4.326-4.326A4.331,4.331,0,0,1,277.726,255.115Z" transform="translate(-156.63 -137.711)" fill="#69f"/>
              <path id="XMLID_398_" d="M405.181,289.86h-3.619a3.906,3.906,0,0,0,0,7.813h3.619a3.906,3.906,0,0,0,0-7.813Z" transform="translate(-242.319 -180.64)" fill="#69f"/>
              <path id="XMLID_399_" d="M200.607,289.616h-3.619a3.906,3.906,0,1,0,0,7.813h3.619a3.906,3.906,0,0,0,0-7.813Z" transform="translate(-117.658 -180.492)" fill="#69f"/>
              <path id="XMLID_400_" d="M304.029,194.25a3.907,3.907,0,0,0,3.906-3.906v-3.619a3.906,3.906,0,0,0-7.813,0v3.619A3.906,3.906,0,0,0,304.029,194.25Z" transform="translate(-182.886 -115.413)" fill="#69f"/>
              <path id="XMLID_424_" d="M303.785,387.393a3.906,3.906,0,0,0-3.906,3.906v3.619a3.906,3.906,0,0,0,7.813,0V391.3A3.906,3.906,0,0,0,303.785,387.393Z" transform="translate(-182.737 -240.074)" fill="#69f"/>
              <path id="XMLID_425_" d="M3.906,351.44a3.906,3.906,0,1,0,2.761,6.668,3.906,3.906,0,0,0-2.761-6.668Z" transform="translate(0 -218.165)" fill="#69f"/>
            </g>
          </g>
        </g>
        <g id="انجمن" transform="translate(-809 6)">
          <text id="با_بقیه_دانشجوها_بحث_و_گفت_وگو_کنید_و_ازشون_.تو_درس_ها_کمک_بگیرید" data-name="با بقیه دانشجوها بحث و
گفت‌وگو کنید و ازشون
.تو درس‌ها کمک بگیرید" transform="translate(1592 1293)" fill="#4d4d4d" font-size="28" font-family="Sahel"><tspan x="-134.606" y="0">با بقیه دانشجوها بحث و</tspan><tspan y="0"></tspan><tspan x="-123.368" y="40">گفت‌وگو کنید و ازشون</tspan><tspan y="40"></tspan><tspan x="-133.937" y="80">.</tspan><tspan y="80">تو درس‌ها کمک بگیرید</tspan></text>
          <text id="انجمن-2" data-name="انجمن" transform="translate(1654 1207)" fill="#4d4d4d" font-size="48" font-family="Sahel-Bold, Sahel" font-weight="700"><tspan x="-123.539" y="0">انجمن</tspan></text>
          <path id="Background-5" data-name="Background" d="M1472.875,1069.989c1.576-19.705,36.909-11.03,63.712-49.989,42.944-62.423,85.653-174.341,131.172-114.913,73.895,96.474,39.006,191.223-43.1,211.749S1468.77,1121.305,1472.875,1069.989Z" fill="#e6eeff"/>
          <g id="Icon_-_Community" data-name="Icon - Community" transform="translate(1491 899)">
            <path id="Path_21" data-name="Path 21" d="M39.71,33.258V17.123a16.111,16.111,0,0,0,6.452-12.9A3.225,3.225,0,0,0,42.935,1H17.129A16.147,16.147,0,0,0,1,17.129V33.258a19.355,19.355,0,1,0,38.71,0ZM7.452,17.129a9.689,9.689,0,0,1,9.677-9.677H39.158A9.7,9.7,0,0,1,30.032,13.9H23.581a12.916,12.916,0,0,0-12.9,12.9A6.449,6.449,0,0,1,7.452,32.39ZM33.258,33.258A12.9,12.9,0,0,1,8.748,38.89a12.919,12.919,0,0,0,8.381-12.084,6.458,6.458,0,0,1,6.452-6.452h6.452a15.882,15.882,0,0,0,3.226-.326Z" transform="translate(0 0)" fill="#69f"/>
            <path id="Path_22" data-name="Path 22" d="M52.613,13H46.161a3.225,3.225,0,0,0-3.226,3.226V38.806H39.384a16.157,16.157,0,0,0-15.8-12.9h-12.9A9.689,9.689,0,0,0,1,35.581V171.065a3.225,3.225,0,0,0,3.226,3.226h38.71a3.225,3.225,0,0,0,3.226-3.226v-6.452a9.664,9.664,0,0,0-6.452-9.084V58.161h12.9a9.689,9.689,0,0,0,9.677-9.677V22.677A9.689,9.689,0,0,0,52.613,13ZM20.355,51.71a3.226,3.226,0,0,1,0-6.452h6.452V51.71Zm6.452,103.226V93.645H20.355v61.29H7.452V87.194H33.258v67.742Zm0,12.9H7.452v-6.452H23.581a3.229,3.229,0,0,1,3.226,3.226Zm12.9,0H33.258v-3.226a9.568,9.568,0,0,0-.594-3.226h3.819a3.229,3.229,0,0,1,3.226,3.226Zm-6.452-87.1H7.452V35.581a3.229,3.229,0,0,1,3.226-3.226h12.9a9.664,9.664,0,0,1,9.084,6.452H20.355a9.677,9.677,0,0,0,0,19.355h12.9ZM55.839,48.484a3.229,3.229,0,0,1-3.226,3.226H33.258V45.258h12.9a3.225,3.225,0,0,0,3.226-3.226V19.452h3.226a3.229,3.229,0,0,1,3.226,3.226Z" transform="translate(0 26.71)" fill="#69f"/>
            <path id="Path_23" data-name="Path 23" d="M94.161,33.258V17.129A16.147,16.147,0,0,0,78.032,1H52.226A3.225,3.225,0,0,0,49,4.226a16.111,16.111,0,0,0,6.452,12.9V33.258a19.355,19.355,0,1,0,38.71,0Zm-19.355,12.9a12.916,12.916,0,0,1-12.9-12.9V20.029a15.882,15.882,0,0,0,3.226.326h6.452a6.458,6.458,0,0,1,6.452,6.452A12.919,12.919,0,0,0,86.413,38.89,12.916,12.916,0,0,1,74.806,46.161ZM87.71,32.39a6.449,6.449,0,0,1-3.226-5.584,12.916,12.916,0,0,0-12.9-12.9H65.129A9.7,9.7,0,0,1,56,7.452H78.032a9.689,9.689,0,0,1,9.677,9.677Z" transform="translate(106.839)" fill="#69f"/>
            <path id="Path_24" data-name="Path 24" d="M66.906,38.806H63.355V16.226A3.225,3.225,0,0,0,60.129,13H53.677A9.689,9.689,0,0,0,44,22.677V48.484a9.689,9.689,0,0,0,9.677,9.677h12.9v97.368a9.664,9.664,0,0,0-6.452,9.084v6.452a3.225,3.225,0,0,0,3.226,3.226h38.71a3.225,3.225,0,0,0,3.226-3.226V35.581A9.689,9.689,0,0,0,95.613,25.9H82.71a16.159,16.159,0,0,0-15.8,12.9Zm19.029,6.452a3.226,3.226,0,0,1,0,6.452H79.484V45.258ZM50.452,48.484V22.677a3.229,3.229,0,0,1,3.226-3.226H56.9V42.032a3.225,3.225,0,0,0,3.226,3.226h12.9V51.71H53.677A3.229,3.229,0,0,1,50.452,48.484ZM66.581,164.613a3.229,3.229,0,0,1,3.226-3.226h3.819a9.569,9.569,0,0,0-.594,3.226v3.226H66.581Zm32.258,3.226H79.484v-3.226a3.229,3.229,0,0,1,3.226-3.226H98.839Zm-12.9-12.9V93.645H79.484v61.29H73.032V87.194H98.839v67.742ZM95.613,32.355a3.229,3.229,0,0,1,3.226,3.226V80.742H73.032V58.161h12.9a9.677,9.677,0,0,0,0-19.355H73.626a9.664,9.664,0,0,1,9.084-6.452Z" transform="translate(95.71 26.71)" fill="#69f"/>
            <path id="Path_25" data-name="Path 25" d="M54.258,1a32.258,32.258,0,1,0,0,64.516H83.29a3.225,3.225,0,0,0,3.226-3.226V33.258A32.3,32.3,0,0,0,54.258,1ZM80.065,59.065H54.258A25.806,25.806,0,1,1,80.065,33.258Z" transform="translate(46.742)" fill="#69f"/>
            <path id="Path_26" data-name="Path 26" d="M27,10h6.452v6.452H27Z" transform="translate(57.871 20.032)" fill="#69f"/>
            <path id="Path_27" data-name="Path 27" d="M31,10h6.452v6.452H31Z" transform="translate(66.774 20.032)" fill="#69f"/>
            <path id="Path_28" data-name="Path 28" d="M35,10h6.452v6.452H35Z" transform="translate(75.677 20.032)" fill="#69f"/>
            <path id="Path_29" data-name="Path 29" d="M54.258,23A32.3,32.3,0,0,0,22,55.258V84.29a3.225,3.225,0,0,0,3.226,3.226H54.258a32.258,32.258,0,0,0,0-64.516Zm0,58.065H28.452V55.258A25.806,25.806,0,1,1,54.258,81.065Z" transform="translate(46.742 48.968)" fill="#69f"/>
            <path id="Path_30" data-name="Path 30" d="M35,32h6.452v6.452H35Z" transform="translate(75.677 69)" fill="#69f"/>
            <path id="Path_31" data-name="Path 31" d="M31,32h6.452v6.452H31Z" transform="translate(66.774 69)" fill="#69f"/>
            <path id="Path_32" data-name="Path 32" d="M27,32h6.452v6.452H27Z" transform="translate(57.871 69)" fill="#69f"/>
          </g>
        </g>
        <g id="آزادی_بیان" data-name="آزادی بیان" transform="translate(-371 6)">
          <text id="با_خیال_راحت_مشکلتون_رو_بیان_کنید_اطلاعاتتون_پیش_ما_میمونه" data-name="با خیال راحت مشکلتون رو
بیان کنید؛ اطلاعاتتون
!پیش ما میمونه" transform="translate(1594 1293)" fill="#4d4d4d" font-size="28" font-family="Sahel"><tspan x="-144.676" y="0">با خیال راحت مشکلتون رو</tspan><tspan y="0"></tspan><tspan x="-120.859" y="40">بیان کنید؛ اطلاعاتتون</tspan><tspan y="40"></tspan><tspan x="-88.963" y="80">!</tspan><tspan y="80">پیش ما میمونه</tspan></text>
          <text id="آزادی_بیان-2" data-name="آزادی بیان" transform="translate(1690 1207)" fill="#4d4d4d" font-size="48" font-family="Sahel-Bold, Sahel" font-weight="700"><tspan x="-195.867" y="0">آزادی بیان</tspan></text>
          <path id="Background-6" data-name="Background" d="M1472.875,1069.989c1.576-19.705,36.909-11.03,63.712-49.989,42.944-62.423,85.653-174.341,131.172-114.913,73.895,96.474,39.006,191.223-43.1,211.749S1468.77,1121.305,1472.875,1069.989Z" fill="#e6eeff"/>
          <g id="surface1" transform="translate(1494 883.001)">
            <path id="Path_18" data-name="Path 18" d="M199.767,63.724l-.007-.183c-.1-2.256-.17-4.643-.211-7.3a24.892,24.892,0,0,0-23.438-24.385c-27-1.507-47.893-10.312-65.742-27.71L110.217,4A15.031,15.031,0,0,0,89.789,4l-.152.145C71.788,21.545,50.9,30.35,23.895,31.859A24.891,24.891,0,0,0,.457,56.244c-.039,2.638-.109,5.024-.211,7.3l-.011.424C-.29,91.5-.942,125.771,10.522,156.876a118.273,118.273,0,0,0,28.374,44.2c14.263,13.919,32.945,24.97,55.527,32.843a17.2,17.2,0,0,0,2.276.62,16.807,16.807,0,0,0,6.608,0,17.252,17.252,0,0,0,2.285-.623c22.554-7.888,41.216-18.944,55.467-32.861a118.438,118.438,0,0,0,28.375-44.207C200.941,125.646,200.29,91.312,199.767,63.724ZM176.5,152.076c-12.091,32.784-36.775,55.3-75.459,68.828a3.458,3.458,0,0,1-.437.118,3.092,3.092,0,0,1-1.211,0,3.429,3.429,0,0,1-.434-.117C60.236,207.4,35.537,184.9,23.454,152.112c-10.567-28.672-9.968-60.13-9.44-87.882l0-.154c.108-2.385.179-4.883.219-7.628A11.063,11.063,0,0,1,24.663,45.619c15.281-.853,28.706-3.806,41.041-9.027A107.375,107.375,0,0,0,99.15,14.121a1.271,1.271,0,0,1,1.706,0A107.415,107.415,0,0,0,134.3,36.591c12.335,5.222,25.76,8.175,41.043,9.027a11.061,11.061,0,0,1,10.425,10.83c.041,2.759.113,5.257.22,7.626C186.516,91.86,187.1,123.343,176.5,152.076Zm0,0" fill="#69f"/>
            <path id="Path_19" data-name="Path 19" d="M148.93,128.41a58.532,58.532,0,1,0,58.532,58.532A58.6,58.6,0,0,0,148.93,128.41Zm0,103.282a44.75,44.75,0,1,1,44.749-44.75A44.8,44.8,0,0,1,148.93,231.692Zm0,0" transform="translate(-48.931 -69.506)" fill="#69f"/>
            <path id="Path_20" data-name="Path 20" d="M200,214.011,172.815,241.2l-7.379-7.379a6.891,6.891,0,0,0-9.746,9.744l12.253,12.253a6.891,6.891,0,0,0,9.744,0l32.06-32.06A6.891,6.891,0,1,0,200,214.011Zm0,0" transform="translate(-83.18 -114.747)" fill="#69f"/>
          </g>
        </g>
        <g id="رایگان" transform="translate(43 6)">
          <text id="تمام_امکاناتی_که_ما_در_اختیار_شما_قرار_میدیم_:_کاملاً_رایگانه" data-name="تمام امکاناتی که ما
در اختیار شما قرار میدیم
 :)کاملاً رایگانه" transform="translate(1619 1291)" fill="#4d4d4d" font-size="28" font-family="Sahel"><tspan x="-106.654" y="0">تمام امکاناتی که ما</tspan><tspan y="0"></tspan><tspan x="-134.757" y="40">در اختیار شما قرار میدیم</tspan><tspan y="40"></tspan><tspan x="-80.657" y="80" xml:space="preserve"> :</tspan><tspan y="80" font-family="SegoeUI, Segoe UI">)</tspan><tspan y="80">کاملاً رایگانه</tspan></text>
          <text id="رایگان-2" data-name="رایگان" transform="translate(1678 1205)" fill="#4d4d4d" font-size="48" font-family="Sahel-Bold, Sahel" font-weight="700"><tspan x="-118.289" y="0">رایگان</tspan></text>
          <path id="Background-7" data-name="Background" d="M1472.875,1069.989c1.576-19.705,36.909-11.03,63.712-49.989,42.944-62.423,85.653-174.341,131.172-114.913,73.895,96.474,39.006,191.223-43.1,211.749S1468.77,1121.305,1472.875,1069.989Z" fill="#e6eeff"/>
          <g id="Icon_-_Free" data-name="Icon - Free" transform="translate(1519 899)">
            <path id="Path_11" data-name="Path 11" d="M54.594,114.38A42.83,42.83,0,0,0,77.977,82.012l1.529,1.529L89.184,60.96l5.365,5.361L97.774,63.1V88.647c-4.413,3.084-6.452,11.965-6.452,15.048a9.677,9.677,0,1,0,19.355,0c0-3.084-2.039-11.961-6.452-15.048v-32l4.561-4.561-4.561-4.561V26.667a10.068,10.068,0,0,0-17.187-7.119l-5.394,5.394L62.29,5.586,48.052,19.825l5.365,5.365-17.59,7.539H18.742a17.73,17.73,0,0,0-6.277,34.316,12.826,12.826,0,0,0-1.1,1.755c-3.258,6.352-7.142,15.326-7.142,22v2.326L13.9,96.347v6.013a14.108,14.108,0,0,0,12.9,14.113v11.481A68.056,68.056,0,0,0,1,181.115v9.677H78.419v-30.5a43.221,43.221,0,0,0-25.806-39.41v-5.51ZM101,106.921a3.229,3.229,0,0,1-3.226-3.226c0-2.665,1.842-7.858,3.226-9.4,1.384,1.545,3.226,6.739,3.226,9.4A3.229,3.229,0,0,1,101,106.921ZM91.6,24.109a3.618,3.618,0,0,1,6.174,2.558v14.4L86.206,29.5ZM57.174,19.825l5.116-5.116L99.665,52.083,94.548,57.2l-2.626-2.626L59.8,22.454ZM58.326,30.1,84.268,56.047,77.329,72.241l-35.2-35.2ZM20.355,102.36V91.7l-9.5-3.165c.616-4.187,2.781-10.026,6.252-16.79a6.436,6.436,0,0,1,5.752-3.529h.719V61.76H18.742a11.29,11.29,0,1,1,0-22.581h16.4l36.81,36.81A36.381,36.381,0,0,1,52.61,108.073V98.58l3.616-3.616a9.6,9.6,0,0,0,2.839-6.842v-.555a9.7,9.7,0,0,0-6.452-9.126V74.663a12.916,12.916,0,0,0-12.9-12.9v6.452a6.458,6.458,0,0,1,6.452,6.452v9.677h3.226a3.229,3.229,0,0,1,3.226,3.226v.555a3.25,3.25,0,0,1-.945,2.281l-5.506,5.506v24.816l-12.9,4.3V116.6H39.71v-6.452l-11.565,0a7.792,7.792,0,0,1-7.79-7.79Zm51.613,57.929v24.052H52.613V154.2a9.618,9.618,0,0,1,2.832-6.845l2.674-2.671-4.561-4.561L50.884,142.8A16.026,16.026,0,0,0,46.161,154.2v30.139H7.452v-3.226a61.6,61.6,0,0,1,24.1-48.723L49.3,126.48a36.726,36.726,0,0,1,22.671,33.81Z" transform="translate(0 10.208)" fill="#69f"/>
            <path id="Path_12" data-name="Path 12" d="M20.251,21H13.8c0,8.342-2.429,10.771-5.506,13.848l4.561,4.561c3.468-3.465,7.4-7.4,7.4-18.41Z" transform="translate(16.233 44.516)" fill="#69f"/>
            <path id="Path_13" data-name="Path 13" d="M44.677,57.9A3.229,3.229,0,0,1,47.9,61.129h6.452A9.664,9.664,0,0,0,47.9,52.045V45H41.452v7.045a9.654,9.654,0,0,0,3.226,18.761,3.226,3.226,0,1,1-3.226,3.226H35a9.664,9.664,0,0,0,6.452,9.084v7.045H47.9V83.116a9.654,9.654,0,0,0-3.226-18.761,3.226,3.226,0,1,1,0-6.452Z" transform="translate(75.677 97.935)" fill="#69f"/>
            <path id="Path_14" data-name="Path 14" d="M58.677,45.9A3.229,3.229,0,0,1,61.9,49.129h6.452A9.664,9.664,0,0,0,61.9,40.045V33H55.452v7.045a9.654,9.654,0,0,0,3.226,18.761,3.226,3.226,0,1,1-3.226,3.226H49a9.664,9.664,0,0,0,6.452,9.084v7.045H61.9V71.116a9.654,9.654,0,0,0-3.226-18.761,3.226,3.226,0,1,1,0-6.452Z" transform="translate(106.839 71.226)" fill="#69f"/>
            <path id="Path_15" data-name="Path 15" d="M107.645,29A35.526,35.526,0,0,0,72.161,64.484a35,35,0,0,0,.335,4.687A35.854,35.854,0,1,0,97.613,98.448a34.919,34.919,0,0,0,10.032,1.519,35.484,35.484,0,0,0,0-70.968ZM62.484,132.226a29.032,29.032,0,1,1,29.032-29.032A29.066,29.066,0,0,1,62.484,132.226Zm45.161-38.71a28.6,28.6,0,0,1-11.926-2.639A35.656,35.656,0,0,0,79.739,72.213a28.988,28.988,0,1,1,27.906,21.3Z" transform="translate(57.871 62.323)" fill="#69f"/>
            <path id="Path_16" data-name="Path 16" d="M58.677,37.258a3.229,3.229,0,0,1-3.226-3.226H49a9.664,9.664,0,0,0,6.452,9.084v7.045H61.9V43.116a9.654,9.654,0,0,0-3.226-18.761A3.226,3.226,0,1,1,61.9,21.129h6.452A9.664,9.664,0,0,0,61.9,12.045V5H55.452v7.045a9.654,9.654,0,0,0,3.226,18.761,3.226,3.226,0,0,1,0,6.452Z" transform="translate(106.839 8.903)" fill="#69f"/>
            <path id="Path_17" data-name="Path 17" d="M76.484,71.968A35.484,35.484,0,1,0,41,36.484,35.526,35.526,0,0,0,76.484,71.968Zm0-64.516A29.032,29.032,0,1,1,47.452,36.484,29.066,29.066,0,0,1,76.484,7.452Z" transform="translate(89.032 0)" fill="#69f"/>
          </g>
        </g>
      </g>
      <g id="Header">
        <g id="Illustration_-_Graduation" data-name="Illustration - Graduation" transform="translate(184.995 166)">
          <ellipse id="Ellipse_1" data-name="Ellipse 1" cx="35.095" cy="5.264" rx="35.095" ry="5.264" transform="translate(9.444 316.186) rotate(-63.611)" fill="#e0e0e0"/>
          <ellipse id="Ellipse_2" data-name="Ellipse 2" cx="35.095" cy="3.577" rx="35.095" ry="3.577" transform="translate(449.477 534.723) rotate(-63.611)" fill="#e0e0e0"/>
          <rect id="Rectangle_1" data-name="Rectangle 1" width="21.057" height="70.189" transform="translate(220.403 405.286) rotate(39.547)" fill="#f55f44"/>
          <rect id="Rectangle_2" data-name="Rectangle 2" width="23.692" height="70.189" transform="translate(222.37 482.557) rotate(-166.769)" opacity="0.05"/>
          <rect id="Rectangle_3" data-name="Rectangle 3" width="21.057" height="70.189" transform="translate(222.37 482.557) rotate(-166.769)" fill="#f55f44"/>
          <rect id="Rectangle_4" data-name="Rectangle 4" width="73.699" height="489.572" transform="translate(13.379 320.097) rotate(-63.611)" fill="url(#linear-gradient)"/>
          <path id="Path_1" data-name="Path 1" d="M655.016,699.1c-8.584-4.117-444.844-220.718-438.556-217.6,24.214-36.957,31.2-62.875,31.2-62.875l438.556,217.6S670.811,663.259,655.016,699.1Z" transform="translate(-202.303 -162.981)" fill="#f5f5f5"/>
          <rect id="Rectangle_5" data-name="Rectangle 5" width="40.359" height="70.189" transform="translate(237.123 350.805) rotate(26.389)" opacity="0.05"/>
          <rect id="Rectangle_6" data-name="Rectangle 6" width="36.849" height="70.189" transform="translate(238.696 351.585) rotate(26.389)" fill="#f55f44"/>
          <rect id="Rectangle_7" data-name="Rectangle 7" width="24.566" height="70.189" transform="translate(243.411 353.924) rotate(26.389)" opacity="0.05"/>
          <rect id="Rectangle_8" data-name="Rectangle 8" width="21.057" height="70.189" transform="translate(244.983 354.704) rotate(26.389)" fill="#f55f44"/>
          <circle id="Ellipse_3" data-name="Ellipse 3" cx="2.926" cy="2.926" r="2.926" transform="translate(258.38 560.999)" fill="#dbdbdb"/>
          <g id="Group_1" data-name="Group 1" opacity="0.5">
            <rect id="Rectangle_9" data-name="Rectangle 9" width="3" height="17" transform="translate(29.394 482)" fill="#47e6b1"/>
            <rect id="Rectangle_10" data-name="Rectangle 10" width="3" height="17" transform="translate(39.394 489) rotate(90)" fill="#47e6b1"/>
          </g>
          <g id="Group_2" data-name="Group 2" opacity="0.5">
            <rect id="Rectangle_11" data-name="Rectangle 11" width="3" height="17" transform="translate(785.394 270)" fill="#47e6b1"/>
            <rect id="Rectangle_12" data-name="Rectangle 12" width="3" height="17" transform="translate(795.394 277) rotate(90)" fill="#47e6b1"/>
          </g>
          <g id="Group_3" data-name="Group 3" opacity="0.5">
            <rect id="Rectangle_13" data-name="Rectangle 13" width="3" height="17" transform="translate(47.394 59)" fill="#47e6b1"/>
            <rect id="Rectangle_14" data-name="Rectangle 14" width="3" height="17" transform="translate(57.394 66) rotate(90)" fill="#47e6b1"/>
          </g>
          <g id="Group_4" data-name="Group 4" opacity="0.5">
            <rect id="Rectangle_15" data-name="Rectangle 15" width="3" height="17" transform="translate(695.394 33)" fill="#47e6b1"/>
            <rect id="Rectangle_16" data-name="Rectangle 16" width="3" height="17" transform="translate(705.394 40) rotate(90)" fill="#47e6b1"/>
          </g>
          <path id="Path_2" data-name="Path 2" d="M214.593,416.437A3.675,3.675,0,0,1,212.546,412a1.767,1.767,0,0,0,.08-.408h0a1.843,1.843,0,0,0-3.31-1.221h0a1.766,1.766,0,0,0-.2.362,3.675,3.675,0,0,1-4.441,2.047,1.765,1.765,0,0,0-.408-.08h0a1.843,1.843,0,0,0-1.221,3.31h0a1.766,1.766,0,0,0,.362.2,3.675,3.675,0,0,1,2.047,4.441,1.765,1.765,0,0,0-.08.408h0a1.843,1.843,0,0,0,3.31,1.221h0a1.766,1.766,0,0,0,.2-.362,3.675,3.675,0,0,1,4.441-2.047,1.767,1.767,0,0,0,.408.08h0a1.843,1.843,0,0,0,1.221-3.31h0a1.765,1.765,0,0,0-.362-.2Z" transform="translate(-202.303 -162.981)" fill="#4d8af0" opacity="0.5"/>
          <path id="Path_3" data-name="Path 3" d="M386.593,219.437A3.675,3.675,0,0,1,384.546,215a1.769,1.769,0,0,0,.08-.408h0a1.843,1.843,0,0,0-3.31-1.221h0a1.767,1.767,0,0,0-.2.362,3.675,3.675,0,0,1-4.441,2.047,1.765,1.765,0,0,0-.408-.08h0a1.843,1.843,0,0,0-1.221,3.31h0a1.767,1.767,0,0,0,.362.2,3.675,3.675,0,0,1,2.047,4.441,1.768,1.768,0,0,0-.08.408h0a1.843,1.843,0,0,0,3.31,1.221h0a1.767,1.767,0,0,0,.2-.362,3.675,3.675,0,0,1,4.441-2.047,1.768,1.768,0,0,0,.408.08h0a1.843,1.843,0,0,0,1.221-3.31h0a1.767,1.767,0,0,0-.362-.2Z" transform="translate(-202.303 -162.981)" fill="#4d8af0" opacity="0.5"/>
          <path id="Path_4" data-name="Path 4" d="M596.593,730.437A3.675,3.675,0,0,1,594.546,726a1.761,1.761,0,0,0,.08-.408h0a1.843,1.843,0,0,0-3.31-1.221h0a1.766,1.766,0,0,0-.2.362,3.675,3.675,0,0,1-4.441,2.048,1.764,1.764,0,0,0-.408-.08h0a1.843,1.843,0,0,0-1.221,3.31h0a1.762,1.762,0,0,0,.362.2,3.675,3.675,0,0,1,2.047,4.441,1.763,1.763,0,0,0-.08.407h0a1.843,1.843,0,0,0,3.31,1.221h0a1.764,1.764,0,0,0,.2-.362,3.675,3.675,0,0,1,4.441-2.048,1.764,1.764,0,0,0,.408.08h0a1.843,1.843,0,0,0,1.221-3.31h0A1.767,1.767,0,0,0,596.593,730.437Z" transform="translate(-202.303 -162.981)" fill="#4d8af0" opacity="0.5"/>
          <circle id="Ellipse_4" data-name="Ellipse 4" cx="6" cy="6" r="6" transform="translate(753.394 438)" fill="#f55f44" opacity="0.5"/>
          <circle id="Ellipse_5" data-name="Ellipse 5" cx="6" cy="6" r="6" transform="translate(621.394 476)" fill="#4d8af0" opacity="0.5"/>
          <circle id="Ellipse_6" data-name="Ellipse 6" cx="6" cy="6" r="6" transform="translate(97.394 535)" fill="#47e6b1" opacity="0.5"/>
          <circle id="Ellipse_7" data-name="Ellipse 7" cx="6" cy="6" r="6" transform="translate(405.394)" fill="#f55f44" opacity="0.5"/>
          <path id="Path_5" data-name="Path 5" d="M407.2,520.481l-24,36s8,37,185,36,191-36,191-36l-33-48-101-69Z" transform="translate(-202.303 -162.981)" fill="#ffb726"/>
          <path id="Path_6" data-name="Path 6" d="M407.2,520.481l-24,36s8,37,185,36,191-36,191-36l-33-48-101-69Z" transform="translate(-202.303 -162.981)" opacity="0.15"/>
          <path id="Path_7" data-name="Path 7" d="M715.394,224l-315,139-384-139,352-160,172.79,79.67,6.19,2.86Z" fill="#ffb726"/>
          <path id="Path_8" data-name="Path 8" d="M715.394,224l-315,139-384-139,352-160,172.79,79.67,6.19,2.86Z" opacity="0.15"/>
          <path id="Path_9" data-name="Path 9" d="M553.894,257.32l-6,.36-6.71-114.01,6.19,2.86Z" fill="#f5f5f5"/>
          <path id="Path_10" data-name="Path 10" d="M411.2,386.481l-28,170s201-65,376,0l-26-180S498.2,347.481,411.2,386.481Z" transform="translate(-202.303 -162.981)" fill="#ffb726"/>
          <ellipse id="Ellipse_8" data-name="Ellipse 8" cx="29" cy="20" rx="29" ry="20" transform="translate(524.394 252)" fill="#f5f5f5"/>
        </g>
        <g id="Right-2" data-name="Right" transform="translate(-140)">
          <text id="_از_تحصیل_در_دانشگاه_لذت_ببرید" data-name=" !از تحصیل در دانشگاه لذت ببرید" transform="translate(1903 307)" fill="#fff" font-size="60" font-family="Sahel"><tspan x="-810.205" y="0" xml:space="preserve"> !</tspan><tspan y="0">از تحصیل در دانشگاه لذت ببرید</tspan></text>
          <text id="ما_محیطی_فراهم_کرده_ایم_تا_شما_دانشجویان_عزیز_.مشکلات_پیشنهادات_و_انتقادات_خود_را_با_ما_و_مسئولین_به_اشتراک_بذارید" data-name="ما محیطی فراهم کرده‌ایم تا شما دانشجویان عزیز
.مشکلات، پیشنهادات و انتقادات خود را با ما و مسئولین به اشتراک بذارید" transform="translate(1903 376)" fill="#fff" font-size="24" font-family="Sahel"><tspan x="-459.422" y="0">ما محیطی فراهم کرده‌ایم تا شما دانشجویان عزیز</tspan><tspan y="0"></tspan><tspan x="-705.117" y="36">.</tspan><tspan y="36">مشکلات، پیشنهادات و انتقادات خود را با ما و مسئولین به اشتراک بذارید</tspan></text>
        </g>
        <g id="Navigation">
          <g id="Button-2" data-name="Button" transform="translate(-357 -20)">
            <rect id="Background-8" data-name="Background" width="200" height="60" rx="30" transform="translate(600 106)" fill="#ffb726"/>
            <text id="_بزن_بریم" data-name="!بزن بریم" transform="translate(754 145)" fill="#fff" font-size="28" font-family="Sahel"><tspan x="-108.158" y="0">!</tspan><tspan y="0">بزن بریم</tspan></text>
          </g>
          <g id="Center-2" data-name="Center" transform="translate(-50 -22)">
            <text id="صفحۀ_اصلی" data-name="صفحۀ اصلی" transform="translate(1292 146)" fill="#fff" font-size="24" font-family="Sahel"><tspan x="-119.273" y="0">صفحۀ اصلی</tspan></text>
            <text id="دربارۀ_ما" data-name="دربارۀ ما" transform="translate(1093 146)" fill="#fff" font-size="24" font-family="Sahel"><tspan x="-79.852" y="0">دربارۀ ما</tspan></text>
            <text id="انجمن-3" data-name="انجمن" transform="translate(933 146)" fill="#fff" font-size="24" font-family="Sahel"><tspan x="-59.59" y="0">انجمن</tspan></text>
          </g>
          <g id="Logo" transform="translate(-129 28)">
            <g transform="matrix(1, 0, 0, 1, 172, -22)" filter="url(#طهران)">
              <text id="طهران-2" data-name="طهران" transform="translate(1627 125)" fill="#fff" font-size="72" font-family="Sahel-Black, Sahel" font-weight="800"><tspan x="-93.305" y="0">طهران</tspan></text>
            </g>
          </g>
        </g>
      </g>
    </g>
  </g>
</svg>
